<?xml version="1.0" standalone="no"?>
<!DOCTYPE svg PUBLIC "-//W3C//DTD SVG 20010904//EN"
 "http://www.w3.org/TR/2001/REC-SVG-20010904/DTD/svg10.dtd">
<svg version="1.0" xmlns="http://www.w3.org/2000/svg"
 width="1024.000000pt" height="1024.000000pt" viewBox="0 0 1024.000000 1024.000000"
 preserveAspectRatio="xMidYMid meet">
<metadata>
Created by potrace 1.14, written by Peter Selinger 2001-2017
</metadata>
<g transform="translate(0.000000,1024.000000) scale(0.100000,-0.100000)"
fill="#000000" stroke="none">
<path d="M6260 8789 c-266 -7 -314 -15 -426 -69 -83 -40 -168 -132 -218 -234
-22 -47 -64 -172 -103 -310 -72 -257 -174 -613 -606 -2121 -162 -566 -361
-1264 -442 -1550 -80 -286 -196 -695 -256 -910 -109 -386 -110 -391 -107 -480
7 -155 72 -256 221 -342 43 -25 86 -57 95 -71 12 -18 18 -57 22 -135 5 -97 8
-111 28 -127 32 -27 127 -32 451 -28 l283 3 19 24 c16 20 19 40 19 141 0 97 3
121 18 139 l17 21 1247 0 c848 1 1254 -2 1267 -10 29 -15 35 -44 36 -163 0
-160 -32 -148 396 -145 316 3 350 5 366 21 14 13 19 41 23 127 7 130 15 144
110 202 94 57 155 121 198 207 35 70 37 81 37 165 -1 82 -6 109 -58 276 -32
102 -139 478 -238 835 -205 739 -239 859 -447 1585 -137 477 -382 1375 -607
2220 -69 257 -95 342 -128 405 -78 151 -233 274 -388 309 -77 17 -467 24 -829
15z m700 -569 c11 -6 24 -19 30 -30 6 -11 80 -282 164 -602 85 -321 254 -954
376 -1408 267 -995 355 -1325 363 -1366 l6 -32 -332 -7 c-183 -3 -453 -5 -602
-3 l-270 3 -5 353 -5 354 -25 20 c-22 18 -36 19 -143 16 -104 -3 -120 -5 -133
-22 -11 -16 -14 -81 -14 -353 l0 -333 -24 -15 c-20 -14 -92 -15 -584 -13 -435
2 -564 6 -574 16 -10 10 -6 39 21 150 44 178 262 969 489 1772 184 649 264
934 351 1258 51 190 67 227 104 242 32 13 784 13 807 0z m-278 -3946 c169 -50
296 -175 343 -337 24 -83 22 -224 -4 -308 -72 -228 -278 -371 -516 -356 -232
15 -405 149 -469 366 -22 74 -21 209 2 292 76 275 361 426 644 343z"/>
<path d="M6379 7933 c-10 -12 -14 -49 -14 -138 0 -163 2 -165 134 -165 119 0
164 12 179 46 16 34 16 246 0 262 -8 8 -56 12 -149 12 -115 0 -139 -3 -150
-17z"/>
<path d="M6393 7334 c-19 -17 -22 -32 -26 -135 -4 -116 5 -166 32 -184 6 -3
61 -7 122 -9 156 -2 149 -10 149 173 l0 149 -32 5 c-18 4 -76 9 -128 13 -84 6
-97 4 -117 -12z"/>
<path d="M6384 6716 c-17 -13 -19 -27 -19 -139 0 -90 4 -128 14 -140 19 -24
252 -25 275 -1 13 12 16 40 16 143 0 85 -4 131 -12 139 -18 18 -248 16 -274
-2z"/>
<path d="M6405 6121 l-30 -6 -8 -113 c-8 -131 -1 -172 34 -189 14 -8 66 -13
130 -13 142 0 139 -3 139 166 0 71 -4 136 -10 144 -7 11 -34 15 -117 16 -59 0
-121 -2 -138 -5z"/>
<path d="M1678 8771 c-222 -73 -353 -280 -318 -503 24 -160 130 -302 261 -349
99 -36 95 -13 70 -427 -32 -543 -59 -1073 -76 -1532 -9 -228 -29 -698 -45
-1045 -30 -632 -59 -1316 -81 -1885 -12 -334 -8 -385 37 -477 34 -70 108 -135
179 -158 173 -54 370 44 420 209 10 33 15 93 15 175 0 118 -4 244 -30 1101
-22 709 -47 1273 -125 2870 -41 842 -50 1088 -41 1124 5 21 21 34 74 59 168
79 271 273 243 456 -27 172 -107 283 -258 358 -69 34 -84 38 -172 40 -73 2
-110 -1 -153 -16z"/>
<path d="M2949 8766 c-78 -27 -140 -68 -194 -127 -83 -90 -115 -175 -115 -298
1 -194 84 -334 245 -412 46 -22 89 -47 96 -55 11 -13 10 -72 -4 -322 -40 -695
-57 -1043 -77 -1537 -11 -286 -36 -855 -55 -1265 -31 -671 -41 -904 -75 -1765
-10 -265 -5 -345 29 -420 27 -59 82 -117 142 -150 49 -27 62 -30 149 -30 84 0
102 3 152 28 107 53 167 144 177 272 16 205 -44 1867 -134 3705 -59 1210 -69
1453 -62 1483 5 18 24 33 73 56 77 37 168 123 201 191 29 59 53 153 53 205 0
65 -27 172 -56 225 -107 197 -339 289 -545 216z"/>
<path d="M3244 1739 c-18 -19 -19 -42 -22 -293 -4 -288 0 -347 24 -371 22 -22
60 -19 84 7 16 17 20 35 20 88 0 62 2 68 34 99 l34 33 52 -89 c80 -134 96
-153 130 -153 30 0 60 30 60 61 0 8 -34 68 -75 133 -41 65 -75 121 -75 125 0
4 25 33 55 63 57 57 67 85 39 112 -35 36 -64 21 -161 -81 l-93 -98 0 173 c0
158 -2 174 -20 192 -26 26 -62 25 -86 -1z"/>
<path d="M2395 1734 c-25 -25 -16 -75 18 -94 24 -13 30 -13 55 0 55 31 35 110
-28 110 -16 0 -36 -7 -45 -16z"/>
<path d="M2007 1722 c-13 -14 -17 -38 -17 -90 0 -69 -1 -71 -26 -74 -15 -2
-33 -12 -40 -23 -12 -18 -11 -24 2 -43 8 -12 26 -22 39 -22 l24 0 3 -175 3
-175 27 -27 c23 -22 38 -28 91 -31 42 -3 75 1 101 12 34 14 37 19 34 48 -3 32
-4 33 -58 36 -37 2 -59 8 -67 19 -9 12 -13 60 -13 155 l0 138 31 0 c42 0 69
17 69 43 0 33 -19 47 -62 47 l-38 0 0 73 c0 59 -4 77 -18 90 -24 22 -65 21
-85 -1z"/>
<path d="M5257 1722 c-13 -14 -17 -38 -17 -90 0 -69 -1 -71 -26 -74 -15 -2
-33 -12 -40 -23 -12 -18 -11 -24 2 -43 8 -12 26 -22 39 -22 l24 0 3 -175 3
-175 27 -27 c23 -22 38 -28 91 -31 42 -3 75 1 101 12 34 14 37 19 34 48 -3 32
-4 33 -58 36 -37 2 -59 8 -67 19 -9 12 -13 60 -13 155 l0 138 31 0 c42 0 69
17 69 43 0 33 -19 47 -62 47 l-38 0 0 73 c0 59 -4 77 -18 90 -24 22 -65 21
-85 -1z"/>
<path d="M1505 1560 c-73 -23 -122 -101 -104 -164 15 -52 51 -77 166 -115 89
-30 110 -41 123 -64 14 -27 14 -29 -14 -54 -26 -22 -36 -25 -80 -20 -45 4 -55
10 -91 51 -58 65 -115 62 -115 -8 0 -40 62 -98 124 -116 64 -18 170 -9 224 19
82 42 108 138 56 201 -34 39 -64 55 -161 81 -121 33 -146 56 -103 99 13 13 33
20 60 20 33 0 48 -7 84 -40 47 -43 83 -51 110 -24 20 19 20 28 1 64 -23 45
-87 73 -175 76 -41 2 -88 -1 -105 -6z"/>
<path d="M2397 1552 c-15 -16 -17 -48 -17 -239 0 -200 2 -221 18 -236 26 -24
68 -21 86 5 13 19 16 59 16 233 0 174 -3 214 -16 233 -19 27 -64 29 -87 4z"/>
<path d="M2775 1551 c-54 -25 -92 -63 -115 -114 -59 -134 -18 -290 92 -349 61
-32 194 -33 254 -1 80 42 120 113 90 158 -26 39 -60 33 -96 -17 -41 -56 -66
-71 -116 -71 -80 0 -124 56 -124 157 0 90 42 152 105 158 51 4 70 -5 116 -52
53 -55 66 -59 99 -32 51 41 -14 142 -109 170 -58 18 -150 14 -196 -7z"/>
<path d="M3797 1552 c-15 -16 -17 -45 -17 -235 0 -204 1 -218 20 -237 30 -30
72 -25 101 13 1 1 5 73 8 159 5 138 9 160 27 185 28 37 91 44 118 14 16 -18
19 -44 24 -188 5 -183 11 -203 62 -203 55 0 64 25 70 202 l5 160 29 24 c21 19
38 24 64 22 55 -5 62 -27 62 -210 0 -145 2 -160 20 -178 26 -26 64 -26 90 0
18 18 20 33 20 198 0 149 -3 182 -18 211 -48 95 -181 109 -269 28 l-23 -20
-24 26 c-31 33 -65 47 -117 47 -42 0 -106 -27 -128 -54 -12 -14 -15 -12 -30
16 -20 40 -67 50 -94 20z"/>
<path d="M4734 1546 c-88 -41 -129 -117 -129 -236 0 -65 5 -83 31 -130 22 -38
46 -64 79 -85 45 -28 56 -30 139 -30 75 0 98 4 133 22 55 30 85 69 81 107 -4
45 -44 47 -91 7 -36 -32 -94 -61 -123 -61 -38 0 -87 34 -105 74 -10 23 -19 46
-19 52 0 8 46 13 148 15 179 5 202 14 202 82 -1 82 -55 158 -137 192 -55 23
-149 19 -209 -9z m175 -82 c21 -15 51 -70 51 -94 0 -6 -43 -10 -116 -10 -115
0 -115 0 -108 23 12 40 34 76 51 86 28 16 96 13 122 -5z"/>
<path d="M5637 1556 c-22 -23 -29 -100 -25 -288 3 -146 5 -168 22 -187 24 -26
60 -27 86 -1 18 18 20 33 20 130 0 127 14 204 42 232 18 18 28 20 89 14 63 -7
69 -5 79 14 18 33 4 66 -34 84 -56 27 -101 21 -143 -18 l-38 -34 -10 31 c-8
26 -16 33 -41 35 -19 2 -38 -3 -47 -12z"/>
<path d="M6155 1546 c-95 -45 -135 -115 -135 -235 1 -111 44 -184 135 -227
131 -62 293 -2 342 125 23 59 23 153 0 212 -49 127 -211 187 -342 125z m166
-82 c94 -48 89 -260 -7 -300 -75 -31 -145 12 -165 101 -31 141 66 254 172 199z"/>
<path d="M7025 1551 c-54 -25 -92 -63 -115 -114 -59 -134 -18 -290 92 -349 61
-32 194 -33 254 -1 80 42 120 113 90 158 -26 39 -60 33 -96 -17 -41 -56 -66
-71 -116 -71 -80 0 -124 56 -124 157 0 90 42 152 105 158 51 4 70 -5 116 -52
53 -55 66 -59 99 -32 51 41 -14 142 -109 170 -58 18 -150 14 -196 -7z"/>
<path d="M7605 1546 c-95 -45 -135 -115 -135 -235 1 -111 44 -184 135 -227
131 -62 293 -2 342 125 23 59 23 153 0 212 -49 127 -211 187 -342 125z m166
-82 c94 -48 89 -260 -7 -300 -75 -31 -145 12 -165 101 -31 141 66 254 172 199z"/>
<path d="M8097 1552 c-15 -16 -17 -45 -17 -235 0 -204 1 -218 20 -237 30 -30
72 -25 101 13 1 1 5 73 8 159 5 138 9 160 27 185 28 37 91 44 118 14 16 -18
19 -44 24 -188 5 -183 11 -203 62 -203 55 0 64 25 70 202 l5 160 29 24 c21 19
38 24 64 22 55 -5 62 -27 62 -210 0 -145 2 -160 20 -178 26 -26 64 -26 90 0
18 18 20 33 20 198 0 149 -3 182 -18 211 -48 95 -181 109 -269 28 l-23 -20
-24 26 c-31 33 -65 47 -117 47 -42 0 -106 -27 -128 -54 -12 -14 -15 -12 -30
16 -20 40 -67 50 -94 20z"/>
<path d="M6657 1180 c-51 -40 -23 -120 42 -120 20 0 36 9 51 27 50 64 -29 143
-93 93z"/>
</g>
</svg>
