<?xml version="1.0" encoding="UTF-8"?>
<svg width="560px" height="560px" viewBox="0 0 560 560" version="1.1" xmlns="http://www.w3.org/2000/svg" xmlns:xlink="http://www.w3.org/1999/xlink">
    <title>Artboard Copy 2</title>
    <g id="Artboard-Copy-2" stroke="none" stroke-width="1" fill="none" fill-rule="evenodd">
        <rect fill="#FFFFFF" x="0" y="0" width="560" height="560"></rect>
        <g id="stick" transform="translate(144.144846, 104.104189)" fill="#000000" fill-rule="nonzero">
            <path d="M49.9551541,25.3958106 C49.9551541,35.2958106 44.0551541,44.2958106 35.1551541,47.6958106 C32.6551541,48.5958106 31.7551541,49.7958106 31.8551541,52.2958106 C32.2551541,61.2958106 32.5551541,70.2958106 32.9551541,79.2958106 C33.4551541,90.0958106 34.0551541,100.895811 34.5551541,111.695811 C36.2551541,147.595811 38.1551541,183.595811 39.6551541,219.495811 C41.0551541,253.595811 41.9551541,287.695811 42.9551541,321.895811 C43.0551541,326.495811 43.4551541,331.195811 42.8551541,335.795811 C41.6551541,344.595811 34.1551541,350.695811 25.1551541,350.895811 C16.6551541,351.095811 9.55515414,345.395811 7.65515414,336.795811 C7.15515414,334.395811 6.85515414,331.795811 6.95515414,329.395811 C7.85515414,304.595811 8.75515414,279.795811 9.85515414,254.995811 C10.9551541,229.395811 12.3551541,203.795811 13.4551541,178.195811 C14.2551541,159.595811 14.7551541,140.895811 15.6551541,122.295811 C16.7551541,99.6958106 18.0551541,77.0958106 19.4551541,54.4958106 C19.6551541,51.1958106 19.5551541,49.4958106 15.5551541,48.1958106 C4.25515414,44.5958106 -2.14484586,31.2958106 0.655154143,18.9958106 C3.25515414,7.49581056 15.2551541,-1.00418944 27.2551541,0.0958105613 C39.3551541,1.19581056 49.0551541,11.0958106 49.7551541,22.9958106 C49.9551541,23.6958106 49.9551541,24.5958106 49.9551541,25.3958106 Z" id="Path"></path>
        </g>
        <g id="stick-copy" transform="translate(74.000000, 104.104189)" fill="#000000" fill-rule="nonzero">
            <path d="M49.9551541,25.3958106 C49.9551541,35.2958106 44.0551541,44.2958106 35.1551541,47.6958106 C32.6551541,48.5958106 31.7551541,49.7958106 31.8551541,52.2958106 C32.2551541,61.2958106 32.5551541,70.2958106 32.9551541,79.2958106 C33.4551541,90.0958106 34.0551541,100.895811 34.5551541,111.695811 C36.2551541,147.595811 38.1551541,183.595811 39.6551541,219.495811 C41.0551541,253.595811 41.9551541,287.695811 42.9551541,321.895811 C43.0551541,326.495811 43.4551541,331.195811 42.8551541,335.795811 C41.6551541,344.595811 34.1551541,350.695811 25.1551541,350.895811 C16.6551541,351.095811 9.55515414,345.395811 7.65515414,336.795811 C7.15515414,334.395811 6.85515414,331.795811 6.95515414,329.395811 C7.85515414,304.595811 8.75515414,279.795811 9.85515414,254.995811 C10.9551541,229.395811 12.3551541,203.795811 13.4551541,178.195811 C14.2551541,159.595811 14.7551541,140.895811 15.6551541,122.295811 C16.7551541,99.6958106 18.0551541,77.0958106 19.4551541,54.4958106 C19.6551541,51.1958106 19.5551541,49.4958106 15.5551541,48.1958106 C4.25515414,44.5958106 -2.14484586,31.2958106 0.655154143,18.9958106 C3.25515414,7.49581056 15.2551541,-1.00418944 27.2551541,0.0958105613 C39.3551541,1.19581056 49.0551541,11.0958106 49.7551541,22.9958106 C49.9551541,23.6958106 49.9551541,24.5958106 49.9551541,25.3958106 Z" id="Path"></path>
        </g>
        <g id="63c5471f-0be8-4753-ae80-02a1deb76e49-copy" transform="translate(224.000000, 104.000000)" fill-rule="nonzero">
            <path d="M225.286557,348.852828 C219.896014,348.852828 214.505471,348.852828 209.114928,348.852828 C205.453427,348.852828 203.622677,347.324508 203.724385,343.350877 C203.826094,339.479133 204.741469,333.977181 202.707302,332.245085 C200.36801,330.105437 195.079175,331.022429 191.112549,331.022429 C150.429207,331.022429 109.644156,331.022429 68.9608141,331.124317 C62.5531877,331.124317 62.654896,331.124317 62.5531877,337.543261 C62.3497709,349.667932 64.3839381,348.954716 51.0601435,348.954716 C42.6183499,348.954716 34.1765564,349.056604 25.7347629,348.954716 C20.1408033,348.852828 18.9203031,347.630172 18.7168864,342.026333 C18.7168864,341.007453 18.5134696,339.988573 18.615178,338.969693 C19.3271365,334.384733 17.5980944,331.939421 13.1229268,329.799773 C2.5452578,324.807261 -2.13332656,314.414686 0.917924111,303.105118 C5.90163354,284.867166 11.190468,266.629215 16.3775942,248.391264 C24.615971,219.149409 32.7526394,189.805665 41.194433,160.56381 C50.0430599,129.487971 59.0951036,98.5140204 68.0454389,67.4381814 C71.9103564,54.0908538 75.4701488,40.7435262 79.233358,27.3961987 C80.2504415,23.8301188 81.4709418,20.2640389 83.0982755,16.901735 C88.38711,5.38839136 98.3545289,0.803431502 110.152698,0.395879515 C126.019202,-0.113560469 141.885705,-0.113560469 157.752209,0.293991518 C171.991378,0.701543505 184.298089,11.6035592 187.95959,25.4603267 C194.062092,48.894566 200.469718,72.1250292 206.775636,95.5592685 C211.45422,112.676452 215.929388,129.793635 220.811389,146.910819 C226.608765,167.390306 232.711267,187.869794 238.406935,208.349281 C245.323103,232.8024 251.934146,257.255519 258.748606,281.606751 C260.681065,288.433246 262.81694,295.157854 264.952815,301.98435 C268.614316,314.007134 262.308398,324.807261 251.730729,330.105437 C248.069228,331.939421 246.950437,333.977181 246.950437,337.747037 C247.052145,348.852828 246.950437,348.852828 235.762517,348.852828 C232.202725,348.852828 228.642932,348.852828 225.08314,348.852828 C225.286557,349.056604 225.286557,348.954716 225.286557,348.852828 Z M59.0951036,218.232417 C60.5190205,218.639969 61.1292707,219.047521 61.8412292,219.047521 C81.4709418,219.149409 100.998946,219.149409 120.628659,219.149409 C123.578201,219.149409 124.29016,217.621089 124.29016,214.972001 C124.188451,207.024737 124.188451,199.077473 124.29016,191.130209 C124.493576,176.86589 121.950867,179.209314 136.698579,178.90365 C140.461788,178.801762 141.783997,180.126306 141.783997,183.896162 C141.682288,193.881185 141.783997,203.866209 141.783997,213.851233 C141.783997,215.685217 141.987413,217.417313 142.089122,219.658849 C164.058127,219.556961 185.51859,219.760737 207.487595,219.251297 C206.673928,215.583329 206.267094,213.138017 205.555136,210.692705 C198.435551,184.201826 191.315966,157.812835 184.298089,131.321955 C175.754588,99.3291244 167.211086,67.2344054 158.871,35.2415744 C157.955625,31.5736065 156.226583,30.8603905 152.870208,30.8603905 C140.868622,30.9622785 128.867036,31.1660545 116.86545,30.7585026 C111.983449,30.6566146 110.152698,32.2868225 108.932198,36.8717824 C104.762155,52.8681978 100.286988,68.8646133 95.81182,84.8610288 C89.811027,106.359396 83.6068173,127.755875 77.6060243,149.254243 C73.0291483,165.65821 68.4522723,182.164066 63.9771046,198.669921 C62.1463542,204.986977 60.7224373,211.405921 59.0951036,218.232417 Z M132.93537,302.086238 C147.78479,303.105118 161.108584,290.572894 161.312001,274.168927 C161.515418,258.070623 149.61554,246.455392 132.93537,246.455392 C117.170575,246.455392 105.270697,258.478175 105.270697,274.576479 C105.270697,290.165342 117.272283,302.086238 132.93537,302.086238 Z" id="Shape" fill="#000000"></path>
            <path d="M59,218.572936 C60.7361206,211.743416 62.165867,205.321628 63.9019877,199.001774 C68.3954764,182.488605 72.9910898,166.07737 77.5867032,149.564202 C83.6120631,128.05631 89.8416724,106.650351 95.8670322,85.1424593 C100.360521,69.1389568 104.85401,53.2373873 109.041124,37.1319516 C110.266621,32.5449605 112.104866,30.8120971 117.006854,31.0159634 C129.057574,31.4236959 141.108293,31.2198297 153.159013,31.1178965 C156.52913,31.1178965 158.26525,31.8314285 159.184373,35.5010214 C167.558602,67.6099597 176.13708,99.6169648 184.715559,131.62397 C191.762166,158.126586 199.013023,184.527268 206.05963,211.029884 C206.672378,213.476279 207.183002,215.922675 208,219.592267 C185.941056,220.101933 164.392735,219.898067 142.33379,220 C142.231666,217.859404 142.027416,216.024608 142.027416,214.189811 C141.925291,204.200364 141.823167,194.210916 142.027416,184.221469 C142.129541,180.449943 140.699794,179.124812 136.921179,179.226745 C122.215216,179.532544 124.66621,177.290015 124.46196,191.458722 C124.359836,199.409506 124.359836,207.360291 124.46196,215.311076 C124.46196,217.961337 123.747087,219.490334 120.785469,219.490334 C101.075394,219.388401 81.4674435,219.388401 61.7573681,219.388401 C61.0424949,219.388401 60.4297464,218.980669 59,218.572936 Z M142.027416,54.9702507 C142.027416,54.460585 142.027416,53.9509193 142.027416,53.4412536 C142.231666,46.305934 142.231666,46.2040009 135.389308,46.305934 C122.317341,46.4078671 124.66621,44.8788701 124.359836,59.0475762 C124.257711,62.7171691 125.789582,64.4500324 129.466073,64.2461662 C130.793694,64.144233 132.223441,64.144233 133.551062,64.0422999 C141.925291,63.5326342 141.925291,63.5326342 142.027416,54.9702507 Z M124.257711,87.9965872 C124.359836,87.9965872 124.359836,87.9965872 124.46196,87.9965872 C124.46196,90.3410493 123.644962,93.093244 124.66621,95.0299736 C126.912954,99.6169648 131.610692,96.762837 135.185058,97.3744358 C137.431803,97.7821683 141.006169,98.3937672 141.312543,94.8261074 C141.721042,90.0352499 141.210418,85.1424593 141.108293,80.2496687 C137.533927,79.9438693 133.857437,79.5361368 130.283071,79.2303374 C129.976696,79.2303374 129.568197,79.3322705 129.261823,79.2303374 C125.585332,78.9245379 123.951337,80.6574013 124.359836,84.3269942 C124.359836,85.5501919 124.257711,86.7733895 124.257711,87.9965872 Z M124.257711,154.151193 C124.257711,154.864725 124.257711,155.476324 124.257711,156.189856 C124.257711,163.529042 124.257711,163.529042 131.712817,163.936774 C131.917066,163.936774 132.019191,163.936774 132.223441,163.936774 C141.618917,164.344507 141.618917,164.344507 141.618917,154.762792 C141.618917,144.467545 142.33379,145.690743 132.734064,145.690743 C123.134339,145.792676 124.359836,144.977211 124.257711,154.151193 Z M133.244688,113.174072 C132.223441,113.174072 131.202193,113.174072 130.180946,113.174072 C124.564085,113.276005 124.564085,113.276005 124.46196,118.780395 C124.46196,119.493927 124.46196,120.105525 124.46196,120.819057 C124.46196,131.216237 123.849212,129.891107 133.346813,129.891107 C142.640164,129.891107 141.516792,130.604639 141.823167,121.838389 C142.129541,111.645075 142.231666,113.377938 133.244688,113.174072 Z" id="Shape" fill="#FFFFFF"></path>
            <path d="M132.643016,301.941695 C116.992191,301.941695 105,289.851732 105,274.27822 C105,258.192421 116.890562,246 132.643016,246 C149.310129,246 161.200691,257.680134 160.997434,273.86839 C160.794176,290.364019 147.480812,302.966269 132.643016,301.941695 Z" id="Path" fill="#FFFFFF"></path>
            <path d="M142,54.5980221 C141.793159,63.1783292 141.793159,63.2804757 133.312678,63.7912083 C131.968211,63.8933548 130.520324,63.8933548 129.175857,63.9955013 C125.452719,64.0976478 123.901412,62.4633036 124.004832,58.7860291 C124.315094,44.5876638 121.936422,46.222008 135.174247,46.017715 C142.206841,45.9155684 142.206841,46.017715 141.896579,53.1679709 C142,53.5765569 142,54.0872895 142,54.5980221 Z" id="Path" fill="#000000"></path>
            <path d="M124.160184,87.9304845 C124.160184,86.6762682 124.260703,85.5265699 124.160184,84.2723536 C123.758108,80.4051868 125.366413,78.7328984 128.985098,79.0464525 C129.286655,79.0464525 129.688731,78.9419344 129.990288,79.0464525 C133.508454,79.3600065 137.127139,79.7780786 140.645305,80.0916327 C140.745824,85.1084978 141.248419,90.125363 140.846343,95.0377101 C140.544786,98.8003589 137.02662,98.0687328 134.815201,97.6506607 C131.297035,97.0235525 126.67316,99.9500572 124.461741,95.2467461 C123.55707,93.2609037 124.260703,90.438917 124.260703,88.0350025 C124.260703,87.9304845 124.260703,87.9304845 124.160184,87.9304845 Z" id="Path" fill="#000000"></path>
            <path d="M124.099931,154.212597 C124.199862,145.247137 122.900761,146.044067 132.294261,146.044067 C141.687761,146.044067 140.988245,144.848672 140.988245,154.909911 C140.988245,164.273836 140.988245,164.273836 131.794607,163.875371 C131.594745,163.875371 131.494814,163.875371 131.294952,163.875371 C124,163.476906 124,163.476906 124,156.304538 C124.099931,155.507608 124.099931,154.909911 124.099931,154.212597 Z" id="Path" fill="#000000"></path>
            <path d="M132.634397,113 C141.36018,113.206641 141.261023,111.450191 140.864397,121.782252 C140.566927,130.667826 141.65765,129.944581 132.634397,129.944581 C123.412831,129.944581 124.007771,131.287749 124.007771,120.749046 C124.007771,120.025802 124.007771,119.405878 124.007771,118.682634 C124.106927,113.103321 124.106927,113 129.560542,113 C130.651264,113 131.642831,113 132.634397,113 Z" id="Path" fill="#000000"></path>
        </g>
    </g>
</svg>