<?xml version="1.0" encoding="UTF-8"?>
<svg width="280px" height="40px" viewBox="0 0 280 40" version="1.1" xmlns="http://www.w3.org/2000/svg" xmlns:xlink="http://www.w3.org/1999/xlink">
    <title>stickmetro-com</title>
    <g id="stickmetro-com" stroke="none" stroke-width="1" fill="none" fill-rule="evenodd">
        <g id="stick" transform="translate(11.726630, 4.549568)" fill="#000000" fill-rule="nonzero">
            <path d="M4.53603536,2.30599418 C4.53603536,3.20493546 4.00030268,4.0221548 3.19216355,4.33088211 C2.96515818,4.41260404 2.88343625,4.52156662 2.89251646,4.748572 C2.92883732,5.56579134 2.95607797,6.38301068 2.99239882,7.20023002 C3.0377999,8.18089324 3.09228119,9.16155645 3.13768226,10.1422197 C3.29204592,13.4020168 3.46457,16.6708942 3.60077322,19.9306913 C3.72789623,23.0270446 3.80961817,26.1233979 3.90042032,29.2288314 C3.90950053,29.6465213 3.94582139,30.0732914 3.8913401,30.4909813 C3.78237752,31.2900402 3.1013614,31.8439333 2.28414206,31.8620938 C1.51232379,31.8802542 0.867628533,31.3626819 0.695104449,30.5817835 C0.649703374,30.3638583 0.62246273,30.1277727 0.631542945,29.9098475 C0.713264879,27.6579542 0.794986813,25.4060609 0.894869177,23.1541676 C0.994751541,20.8296326 1.12187455,18.5050976 1.22175691,16.1805626 C1.29439863,14.4916426 1.33979971,12.7936424 1.42152164,11.1047224 C1.52140401,9.05259387 1.6394468,7.0004653 1.76656981,4.94833672 C1.78473024,4.64868963 1.77565002,4.49432598 1.41244143,4.37628318 C0.386377142,4.04939545 -0.194756614,2.84172686 0.0594894043,1.72486043 C0.295574992,0.680635709 1.38520078,-0.0911825593 2.47482657,0.00869980489 C3.57353258,0.108582169 4.45431343,1.00752345 4.51787493,2.08806902 C4.53603536,2.15163053 4.53603536,2.23335246 4.53603536,2.30599418 Z" id="Path"></path>
        </g>
        <g id="stick-copy" transform="translate(5.357327, 4.549568)" fill="#000000" fill-rule="nonzero">
            <path d="M4.53603536,2.30599418 C4.53603536,3.20493546 4.00030268,4.0221548 3.19216355,4.33088211 C2.96515818,4.41260404 2.88343625,4.52156662 2.89251646,4.748572 C2.92883732,5.56579134 2.95607797,6.38301068 2.99239882,7.20023002 C3.0377999,8.18089324 3.09228119,9.16155645 3.13768226,10.1422197 C3.29204592,13.4020168 3.46457,16.6708942 3.60077322,19.9306913 C3.72789623,23.0270446 3.80961817,26.1233979 3.90042032,29.2288314 C3.90950053,29.6465213 3.94582139,30.0732914 3.8913401,30.4909813 C3.78237752,31.2900402 3.1013614,31.8439333 2.28414206,31.8620938 C1.51232379,31.8802542 0.867628533,31.3626819 0.695104449,30.5817835 C0.649703374,30.3638583 0.62246273,30.1277727 0.631542945,29.9098475 C0.713264879,27.6579542 0.794986813,25.4060609 0.894869177,23.1541676 C0.994751541,20.8296326 1.12187455,18.5050976 1.22175691,16.1805626 C1.29439863,14.4916426 1.33979971,12.7936424 1.42152164,11.1047224 C1.52140401,9.05259387 1.6394468,7.0004653 1.76656981,4.94833672 C1.78473024,4.64868963 1.77565002,4.49432598 1.41244143,4.37628318 C0.386377142,4.04939545 -0.194756614,2.84172686 0.0594894043,1.72486043 C0.295574992,0.680635709 1.38520078,-0.0911825593 2.47482657,0.00869980489 C3.57353258,0.108582169 4.45431343,1.00752345 4.51787493,2.08806902 C4.53603536,2.15163053 4.53603536,2.23335246 4.53603536,2.30599418 Z" id="Path"></path>
        </g>
        <g id="63c5471f-0be8-4753-ae80-02a1deb76e49-copy" transform="translate(18.977649, 4.540107)" fill-rule="nonzero">
            <path d="M20.4565035,31.6765866 C19.9670307,31.6765866 19.4775578,31.6765866 18.9880849,31.6765866 C18.6556128,31.6765866 18.4893767,31.5378119 18.498612,31.1769975 C18.5078474,30.8254349 18.5909654,30.3258458 18.4062587,30.1685678 C18.1938459,29.9742832 17.7136084,30.057548 17.3534302,30.057548 C13.6592953,30.057548 9.95592505,30.057548 6.26179013,30.0667996 C5.67996388,30.0667996 5.68919922,30.0667996 5.67996388,30.6496535 C5.66149321,31.7505998 5.84619995,31.6858382 4.63637077,31.6858382 C3.86983777,31.6858382 3.10330478,31.6950899 2.33677178,31.6858382 C1.82882823,31.6765866 1.71800418,31.5655668 1.69953351,31.0567261 C1.69953351,30.9642096 1.68106283,30.8716931 1.69029817,30.7791766 C1.75494553,30.3628524 1.5979448,30.1408128 1.19158996,29.9465282 C0.231114879,29.4931974 -0.193710637,28.5495292 0.0833494821,27.5225962 C0.535881009,25.866551 1.01611855,24.2105058 1.48712075,22.5544606 C2.23518307,19.8992373 2.97401005,17.2347624 3.74054305,14.5795391 C4.54401739,11.7577861 5.36596241,8.94528478 6.17867209,6.12353181 C6.52961491,4.91156578 6.85285172,3.69959975 7.1945592,2.48763372 C7.28691257,2.163826 7.39773662,1.84001828 7.54550201,1.53471386 C8.02573955,0.489277516 8.93080261,0.0729533071 10.0021017,0.0359467108 C11.4428144,-0.0103115347 12.883527,-0.0103115347 14.3242396,0.0266950617 C15.6171868,0.063701658 16.7346626,1.05362811 17.0671348,2.31185239 C17.621255,4.43973168 18.2030812,6.54910767 18.7756722,8.67698696 C19.2004977,10.231264 19.6068525,11.7855411 20.0501487,13.3398181 C20.5765629,15.1993996 21.1306832,17.058981 21.6478621,18.9185625 C22.275865,21.1389583 22.8761619,23.3593541 23.4949295,25.5704982 C23.6704009,26.1903587 23.864343,26.8009675 24.0582851,27.420828 C24.3907572,28.5125226 23.8181663,29.4931974 22.8576912,29.9742832 C22.5252191,30.1408128 22.4236304,30.3258458 22.4236304,30.6681568 C22.4328657,31.6765866 22.4236304,31.6765866 21.4077433,31.6765866 C21.0845065,31.6765866 20.7612697,31.6765866 20.4380329,31.6765866 C20.4565035,31.6950899 20.4565035,31.6858382 20.4565035,31.6765866 Z M5.36596241,19.8159725 C5.49525714,19.8529791 5.55066916,19.8899857 5.61531652,19.8899857 C7.39773662,19.8992373 9.17092138,19.8992373 10.9533415,19.8992373 C11.2211663,19.8992373 11.2858136,19.7604626 11.2858136,19.5199197 C11.2765783,18.7982911 11.2765783,18.0766624 11.2858136,17.3550338 C11.3042843,16.0598029 11.0734009,16.2725909 12.4125248,16.2448359 C12.7542322,16.2355843 12.8742916,16.3558557 12.8742916,16.6981667 C12.8650563,17.6048283 12.8742916,18.5114899 12.8742916,19.4181515 C12.8742916,19.5846812 12.8927623,19.7419593 12.9019976,19.9454955 C14.8968305,19.9362439 16.8454867,19.9547472 18.8403195,19.908489 C18.7664368,19.5754296 18.7294955,19.35339 18.6648481,19.1313504 C18.0183745,16.7259217 17.3719009,14.3297446 16.7346626,11.9243158 C15.9588943,9.01929798 15.183126,6.10502851 14.4258283,3.2000107 C14.3427103,2.86695133 14.1857095,2.80218979 13.8809434,2.80218979 C12.7911736,2.81144144 11.7014038,2.82994474 10.611634,2.79293814 C10.1683378,2.78368649 10.0021017,2.93171288 9.89127769,3.34803708 C9.51262886,4.80054599 9.10627402,6.2530549 8.69991918,7.7055638 C8.15503428,9.65766176 7.5916787,11.6005081 7.0467938,13.552606 C6.63120362,15.0421215 6.21561344,16.5408887 5.8092586,18.0396558 C5.64302253,18.6132581 5.51372781,19.196112 5.36596241,19.8159725 Z M12.0708173,27.4300797 C13.4191765,27.5225962 14.6290057,26.3846433 14.6474764,24.8951278 C14.6659471,23.4333673 13.5854126,22.3786793 12.0708173,22.3786793 C10.63934,22.3786793 9.55880554,23.4703739 9.55880554,24.9321344 C9.55880554,26.3476367 10.6485753,27.4300797 12.0708173,27.4300797 Z" id="Shape" fill="#000000"></path>
            <path d="M5.35732681,19.8468924 C5.51497029,19.2267572 5.64479434,18.6436451 5.80243782,18.0697888 C6.21045625,16.5703576 6.62774783,15.0801822 7.0450394,13.580751 C7.59215503,11.6277882 8.15781694,9.68408111 8.70493257,7.7311183 C9.112951,6.27796587 9.52096943,4.83406919 9.90116842,3.37166101 C10.0124462,2.95515236 10.1793628,2.79780464 10.6244738,2.81631614 C11.7187051,2.85333913 12.8129363,2.83482763 13.9071676,2.82557188 C14.2131814,2.82557188 14.3708249,2.89036212 14.4542832,3.22356905 C15.2146812,6.13912965 15.9936254,9.04543451 16.7725697,11.9517394 C17.4124168,14.3582338 18.0708102,16.7554725 18.7106573,19.161967 C18.7662961,19.384105 18.8126619,19.6062429 18.886847,19.9394498 C16.8838475,19.9857286 14.9272136,19.9672171 12.9242141,19.9764728 C12.9149409,19.7821021 12.8963946,19.6154987 12.8963946,19.4488952 C12.8871215,18.5418319 12.8778483,17.6347686 12.8963946,16.7277053 C12.9056678,16.3852426 12.7758437,16.2649179 12.4327373,16.2741737 C11.0974043,16.3019409 11.3199598,16.0983144 11.3014135,17.3848634 C11.2921403,18.1068117 11.2921403,18.8287601 11.3014135,19.5507084 C11.3014135,19.7913579 11.2365015,19.9301941 10.9675802,19.9301941 C9.17786302,19.9209383 7.39741896,19.9209383 5.60770175,19.9209383 C5.54278973,19.9209383 5.48715085,19.8839154 5.35732681,19.8468924 Z M12.8963946,4.9914169 C12.8963946,4.94513817 12.8963946,4.89885943 12.8963946,4.85258069 C12.9149409,4.20467833 12.9149409,4.19542258 12.2936401,4.20467833 C11.1066774,4.21393408 11.3199598,4.07509786 11.2921403,5.36164682 C11.2828672,5.69485375 11.4219644,5.85220146 11.7557977,5.83368997 C11.8763486,5.82443422 12.0061726,5.82443422 12.1267235,5.81517847 C12.8871215,5.76889973 12.8871215,5.76889973 12.8963946,4.9914169 Z M11.2828672,7.99027924 C11.2921403,7.99027924 11.2921403,7.99027924 11.3014135,7.99027924 C11.3014135,8.20316144 11.2272283,8.45306664 11.3199598,8.62892585 C11.523969,9.04543451 11.9505337,8.78627356 12.2750938,8.84180805 C12.4791031,8.87883104 12.8036632,8.93436553 12.8314826,8.61041435 C12.8685752,8.1753942 12.8222095,7.7311183 12.8129363,7.2868424 C12.4883762,7.25907515 12.1545429,7.22205216 11.8299828,7.19428492 C11.8021634,7.19428492 11.7650708,7.20354066 11.7372514,7.19428492 C11.4034181,7.16651767 11.2550478,7.32386539 11.2921403,7.65707231 C11.2921403,7.76814129 11.2828672,7.87921026 11.2828672,7.99027924 Z M11.2828672,13.9972597 C11.2828672,14.0620499 11.2828672,14.1175844 11.2828672,14.1823746 C11.2828672,14.8487885 11.2828672,14.8487885 11.9598069,14.8858115 C11.9783532,14.8858115 11.9876263,14.8858115 12.0061726,14.8858115 C12.859302,14.9228345 12.859302,14.9228345 12.859302,14.0527941 C12.859302,13.1179636 12.9242141,13.2290326 12.0525383,13.2290326 C11.1808626,13.2382883 11.2921403,13.1642423 11.2828672,13.9972597 Z M12.0989041,10.276449 C12.0061726,10.276449 11.9134411,10.276449 11.8207097,10.276449 C11.3106866,10.2857047 11.3106866,10.2857047 11.3014135,10.7855151 C11.3014135,10.8503054 11.3014135,10.9058398 11.3014135,10.9706301 C11.3014135,11.9147164 11.2457746,11.7943916 12.1081772,11.7943916 C12.9520335,11.7943916 12.8500289,11.8591819 12.8778483,11.0631876 C12.9056678,10.1376128 12.9149409,10.2949605 12.0989041,10.276449 Z" id="Shape" fill="#FFFFFF"></path>
            <path d="M12.044271,27.4169549 C10.6231424,27.4169549 9.53422567,26.3191602 9.53422567,24.9050518 C9.53422567,23.4444267 10.6139143,22.3373287 12.044271,22.3373287 C13.5576806,22.3373287 14.6373692,23.39791 14.618913,24.8678385 C14.6004568,26.3656769 13.3915747,27.5099883 12.044271,27.4169549 Z" id="Path" fill="#FFFFFF"></path>
            <path d="M12.8939052,4.95761775 C12.8751236,5.73672808 12.8751236,5.7460032 12.1050776,5.79237881 C11.9829972,5.80165394 11.8515259,5.80165394 11.7294455,5.81092906 C11.3913765,5.82020418 11.2505145,5.67180222 11.2599053,5.33789779 C11.2880777,4.0486557 11.0720892,4.19705767 12.2741121,4.17850742 C12.9126868,4.1692323 12.9126868,4.17850742 12.8845144,4.82776603 C12.8939052,4.86486652 12.8939052,4.91124213 12.8939052,4.95761775 Z" id="Path" fill="#000000"></path>
            <path d="M11.2740116,7.98427697 C11.2740116,7.87039144 11.2831389,7.76599637 11.2740116,7.65211083 C11.2375022,7.30096377 11.3835397,7.14911639 11.7121241,7.17758777 C11.7395061,7.17758777 11.7760155,7.16809731 11.8033975,7.17758777 C12.1228546,7.20605916 12.4514389,7.244021 12.770896,7.27249238 C12.7800233,7.72803452 12.82566,8.18357666 12.7891507,8.62962834 C12.7617686,8.97128494 12.4423116,8.90485171 12.24151,8.86688986 C11.922053,8.8099471 11.5021952,9.07568001 11.3013936,8.64860926 C11.2192475,8.46829049 11.2831389,8.21204804 11.2831389,7.99376744 C11.2831389,7.98427697 11.2831389,7.98427697 11.2740116,7.98427697 Z" id="Path" fill="#000000"></path>
            <path d="M11.2685404,14.0028353 C11.2776144,13.1887522 11.1596532,13.2611152 12.0126032,13.2611152 C12.8655533,13.2611152 12.8020357,13.1525708 12.8020357,14.0661529 C12.8020357,14.9164174 12.8020357,14.9164174 11.9672335,14.8802359 C11.9490857,14.8802359 11.9400117,14.8802359 11.9218639,14.8802359 C11.2594665,14.8440544 11.2594665,14.8440544 11.2594665,14.192788 C11.2685404,14.1204251 11.2685404,14.0661529 11.2685404,14.0028353 Z" id="Path" fill="#000000"></path>
            <path d="M12.0434883,10.2606429 C12.8358081,10.2794063 12.8268045,10.1199169 12.79079,11.0580903 C12.7637791,11.8649194 12.862819,11.7992473 12.0434883,11.7992473 C11.2061503,11.7992473 11.2601721,11.9212098 11.2601721,10.9642729 C11.2601721,10.8986008 11.2601721,10.8423104 11.2601721,10.7766382 C11.2691757,10.2700246 11.2691757,10.2606429 11.7643756,10.2606429 C11.8634156,10.2606429 11.953452,10.2606429 12.0434883,10.2606429 Z" id="Path" fill="#000000"></path>
        </g>
        <g id="stickmetro.com" transform="translate(51.000000, 14.000000)" fill="#000000" fill-rule="nonzero">
            <path d="M12.9592699,15.2902375 C12.9592699,16.2840809 12.705438,17.1350044 12.1977743,17.8430079 C11.6901106,18.5510114 10.9401529,19.087511 9.94790108,19.4525066 C8.95564929,19.8175022 7.74879421,20 6.32733583,20 C4.9704892,20 3.8074778,19.8021108 2.83830163,19.4063325 C1.86912546,19.0105541 1.15378115,18.5158311 0.69226869,17.9221636 C0.23075623,17.328496 0,16.7326297 0,16.1345646 C0,15.7387863 0.147683987,15.4001759 0.443051962,15.1187335 C0.738419936,14.8372911 1.11224503,14.6965699 1.56452724,14.6965699 C1.96142796,14.6965699 2.26602618,14.7889182 2.47832191,14.9736148 C2.69061764,15.1583113 2.89368313,15.4177661 3.08751836,15.7519789 C3.47518883,16.3940193 3.93900885,16.8733509 4.47897843,17.1899736 C5.01894801,17.5065963 5.75506038,17.6649077 6.68731555,17.6649077 C7.44419598,17.6649077 8.06493024,17.5043975 8.54951833,17.1833773 C9.03410641,16.8623571 9.27640045,16.4951627 9.27640045,16.0817942 C9.27640045,15.4485488 9.02487616,14.9868074 8.52182758,14.6965699 C8.018779,14.4063325 7.19036413,14.1292876 6.03658298,13.8654354 C4.73511784,13.5576077 3.67594675,13.2343887 2.85906969,12.8957784 C2.04219264,12.557168 1.38915251,12.1108179 0.899949297,11.5567282 C0.41074609,11.0026385 0.166144486,10.3210202 0.166144486,9.51187335 C0.166144486,8.79067722 0.392285591,8.10905893 0.844567802,7.46701847 C1.29685001,6.82497801 1.96373552,6.31266491 2.84522432,5.93007916 C3.72671312,5.5474934 4.79049934,5.35620053 6.03658298,5.35620053 C7.0149894,5.35620053 7.89417063,5.45294635 8.67412669,5.64643799 C9.45408275,5.83992964 10.1048153,6.09938434 10.6263244,6.42480211 C11.1478335,6.75021988 11.5447342,7.11081794 11.8170265,7.50659631 C12.0893189,7.90237467 12.2254651,8.28935796 12.2254651,8.66754617 C12.2254651,9.08091469 12.0800886,9.41952507 11.7893358,9.68337731 C11.4985829,9.94722955 11.0855293,10.0791557 10.5501748,10.0791557 C10.1625044,10.0791557 9.83252297,9.97361478 9.56023061,9.76253298 C9.28793826,9.55145119 8.97641735,9.2348285 8.62566788,8.81266491 C8.33953016,8.46086192 8.00262606,8.17941953 7.61495559,7.96833773 C7.22728513,7.75725594 6.70116092,7.65171504 6.03658298,7.65171504 C5.35354454,7.65171504 4.78588421,7.79023747 4.333602,8.06728232 C3.88131979,8.34432718 3.65517869,8.68953386 3.65517869,9.10290237 C3.65517869,9.48109059 3.82132317,9.79111697 4.15361214,10.0329815 C4.48590111,10.2748461 4.9335682,10.474934 5.4966134,10.6332454 C6.0596586,10.7915567 6.83499954,10.9850484 7.8226362,11.2137203 C8.99487785,11.4863676 9.95251621,11.8117854 10.6955513,12.1899736 C11.4385863,12.5681618 12.0016315,13.0145119 12.3846869,13.5290237 C12.7677422,14.0435356 12.9592699,14.6306069 12.9592699,15.2902375 Z" id="Path"></path>
            <path d="M17.4392232,5.67282322 L17.8545844,5.67282322 L17.8545844,3.50923483 C17.8545844,2.92875989 17.8707373,2.47361478 17.9030432,2.14379947 C17.9353491,1.81398417 18.025344,1.53034301 18.173028,1.29287599 C18.320712,1.0466139 18.5330077,0.846525945 18.8099152,0.692612137 C19.0868227,0.538698329 19.396036,0.461741425 19.7375552,0.461741425 C20.2175282,0.461741425 20.6513499,0.633245383 21.0390204,0.976253298 C21.2974674,1.20492524 21.4613043,1.48416887 21.5305312,1.81398417 C21.599758,2.14379947 21.6343715,2.6121372 21.6343715,3.21899736 L21.6343715,5.67282322 L23.0189088,5.67282322 C23.5542633,5.67282322 23.9627018,5.7937555 24.2442244,6.03562005 C24.525747,6.27748461 24.6665083,6.58751099 24.6665083,6.96569921 C24.6665083,7.44942832 24.4657504,7.7880387 24.0642346,7.98153034 C23.6627187,8.17502199 23.0881357,8.27176781 22.3404855,8.27176781 L21.6343715,8.27176781 L21.6343715,14.8944591 C21.6343715,15.4573439 21.6551395,15.8905013 21.6966756,16.1939314 C21.7382118,16.4973615 21.8489748,16.7436236 22.0289646,16.9327177 C22.2089545,17.1218118 22.5020149,17.2163588 22.9081458,17.2163588 C23.1296718,17.2163588 23.4296549,17.1789798 23.8080951,17.1042216 C24.1865354,17.0294635 24.4819033,16.9920844 24.6941991,16.9920844 C24.9987973,16.9920844 25.2733972,17.1086192 25.5179988,17.3416887 C25.7626004,17.5747581 25.8849012,17.8627968 25.8849012,18.2058047 C25.8849012,18.7862797 25.5526122,19.230431 24.8880343,19.5382586 C24.2234564,19.8460862 23.2681256,20 22.0220419,20 C20.84057,20 19.9452359,19.8109059 19.3360394,19.4327177 C18.726843,19.0545295 18.3276347,18.5312225 18.1384146,17.8627968 C17.9491945,17.1943712 17.8545844,16.3016711 17.8545844,15.1846966 L17.8545844,8.27176781 L17.356151,8.27176781 C16.8115662,8.27176781 16.396205,8.14863676 16.1100673,7.90237467 C15.8239296,7.65611258 15.6808607,7.34388742 15.6808607,6.96569921 C15.6808607,6.58751099 15.8308523,6.27748461 16.1308354,6.03562005 C16.4308185,5.7937555 16.8669477,5.67282322 17.4392232,5.67282322 Z" id="Path"></path>
            <path d="M33.2887034,7.40105541 L33.2887034,17.8100264 C33.2887034,18.5312225 33.1087136,19.0765172 32.7487339,19.4459103 C32.3887541,19.8153034 31.9318568,20 31.3780418,20 C30.8242269,20 30.3742522,19.8109059 30.0281179,19.4327177 C29.6819836,19.0545295 29.5089164,18.5136324 29.5089164,17.8100264 L29.5089164,7.50659631 C29.5089164,6.79419525 29.6819836,6.25769569 30.0281179,5.89709763 C30.3742522,5.53649956 30.8242269,5.35620053 31.3780418,5.35620053 C31.9318568,5.35620053 32.3887541,5.53649956 32.7487339,5.89709763 C33.1087136,6.25769569 33.2887034,6.75901495 33.2887034,7.40105541 Z M31.419578,3.68073879 C30.8934538,3.68073879 30.4434791,3.52682498 30.069654,3.21899736 C29.6958289,2.91116974 29.5089164,2.47581354 29.5089164,1.91292876 C29.5089164,1.40281442 29.7004441,0.982849604 30.0834994,0.653034301 C30.4665547,0.323218997 30.9119143,0.158311346 31.419578,0.158311346 C31.9087812,0.158311346 32.3426029,0.307827617 32.7210431,0.606860158 C33.0994833,0.9058927 33.2887034,1.3412489 33.2887034,1.91292876 C33.2887034,2.46701847 33.1040985,2.9001759 32.7348885,3.21240106 C32.3656785,3.52462621 31.9272417,3.68073879 31.419578,3.68073879 Z" id="Shape"></path>
            <path d="M51.4332158,15.5408971 C51.4332158,15.9894459 51.2924545,16.4687775 51.0109319,16.9788918 C50.7294093,17.4890062 50.3002027,17.974934 49.7233121,18.4366755 C49.1464215,18.8984169 48.4195394,19.2700088 47.5426657,19.5514512 C46.6657921,19.8328936 45.6781554,19.9736148 44.5797557,19.9736148 C42.2445027,19.9736148 40.4215285,19.324978 39.1108331,18.0277045 C37.8001377,16.730431 37.14479,14.9912049 37.14479,12.8100264 C37.14479,11.3324538 37.4447731,10.0263852 38.0447393,8.89182058 C38.6447055,7.75725594 39.5123489,6.87994723 40.6476696,6.25989446 C41.7829902,5.63984169 43.1398369,5.3298153 44.7182095,5.3298153 C45.6966159,5.3298153 46.5942576,5.46613896 47.4111347,5.73878628 C48.2280117,6.0114336 48.9202804,6.36323659 49.4879408,6.79419525 C50.0556011,7.22515391 50.4894228,7.68469657 50.7894059,8.17282322 C51.089389,8.66094987 51.2393805,9.11609499 51.2393805,9.53825858 C51.2393805,9.96921724 51.0709285,10.3342128 50.7340244,10.6332454 C50.3971203,10.9322779 49.9886818,11.0817942 49.5087088,11.0817942 C49.1948803,11.0817942 48.9341258,11.0048373 48.7264452,10.8509235 C48.5187646,10.6970097 48.2857008,10.4485488 48.0272538,10.1055409 C47.5657414,9.43711522 47.0834608,8.93579595 46.5804123,8.60158311 C46.0773637,8.26737027 45.4381689,8.10026385 44.662828,8.10026385 C43.5459678,8.10026385 42.6460185,8.51583113 41.9629801,9.3469657 C41.2799416,10.1781003 40.9384224,11.3148637 40.9384224,12.7572559 C40.9384224,13.4344767 41.0261098,14.0567282 41.2014845,14.6240106 C41.3768593,15.1912929 41.6306911,15.675022 41.9629801,16.0751979 C42.2952691,16.4753738 42.6967849,16.7788039 43.1675276,16.9854881 C43.6382703,17.1921724 44.1551643,17.2955145 44.7182095,17.2955145 C45.4750899,17.2955145 46.1235149,17.1284081 46.6634845,16.7941953 C47.2034541,16.4599824 47.6811195,15.9498681 48.0964807,15.2638522 C48.3272369,14.8592788 48.5764536,14.5426561 48.8441309,14.3139842 C49.1118081,14.0853122 49.4394819,13.9709763 49.8271524,13.9709763 C50.2886649,13.9709763 50.6717202,14.1380827 50.9763184,14.4722955 C51.2809167,14.8065084 51.4332158,15.1627089 51.4332158,15.5408971 Z" id="Path"></path>
            <path d="M64.1373211,18.3509235 L60.800586,13.1266491 L58.7514707,14.9736148 L58.7514707,17.8364116 C58.7514707,18.5312225 58.559943,19.0655233 58.1768877,19.439314 C57.7938324,19.8131047 57.353088,20 56.8546545,20 C56.2731488,20 55.8162515,19.8153034 55.4839625,19.4459103 C55.1516735,19.0765172 54.985529,18.5312225 54.985529,17.8100264 L54.985529,2.45382586 C54.985529,1.65347405 55.1470584,1.04441513 55.4701171,0.626649077 C55.7931758,0.208883026 56.2546883,0 56.8546545,0 C57.4361602,0 57.8976727,0.189094107 58.2391919,0.567282322 C58.5807111,0.945470536 58.7514707,1.50395778 58.7514707,2.24274406 L58.7514707,10.9762533 L63.0020005,6.72823219 C63.5281247,6.2005277 63.9296405,5.83992964 64.206548,5.64643799 C64.4834555,5.45294635 64.8203596,5.35620053 65.2172603,5.35620053 C65.688003,5.35620053 66.0802886,5.49912049 66.3941171,5.78496042 C66.7079455,6.07080035 66.8648598,6.42919965 66.8648598,6.86015831 C66.8648598,7.3878628 66.3525809,8.09146878 65.3280233,8.97097625 L63.3204441,10.7255937 L67.1971487,16.530343 C67.4832865,16.9613017 67.6886595,17.2889182 67.8132679,17.5131926 C67.9378762,17.737467 68.0001804,17.9507476 68.0001804,18.1530343 C68.0001804,18.7247142 67.8363435,19.1754617 67.5086696,19.505277 C67.1809958,19.8350923 66.7494816,20 66.2141272,20 C65.7526147,20 65.3972501,19.8812665 65.1480334,19.6437995 C64.8988167,19.4063325 64.5619126,18.9753738 64.1373211,18.3509235 Z" id="Path"></path>
            <path d="M84.2340312,12.9419525 L84.2340312,17.7308707 C84.2340312,18.4872471 84.0540413,19.0545295 83.6940616,19.4327177 C83.3340819,19.8109059 82.858724,20 82.2679881,20 C81.6957126,20 81.2318926,19.8109059 80.876528,19.4327177 C80.5211634,19.0545295 80.3434811,18.4872471 80.3434811,17.7308707 L80.3434811,11.9920844 C80.3434811,11.0861917 80.3111753,10.3825858 80.2465635,9.88126649 C80.1819518,9.37994723 80.006577,8.96877748 79.7204393,8.64775726 C79.4343016,8.32673703 78.9820194,8.16622691 78.3635927,8.16622691 C77.1267393,8.16622691 76.3121698,8.57080035 75.9198842,9.37994723 C75.5275986,10.1890941 75.3314558,11.350044 75.3314558,12.8627968 L75.3314558,17.7308707 C75.3314558,18.4784521 75.1537735,19.0435356 74.7984089,19.4261214 C74.4430443,19.8087071 73.9746092,20 73.3931035,20 C72.820828,20 72.3523929,19.8087071 71.987798,19.4261214 C71.6232032,19.0435356 71.4409058,18.4784521 71.4409058,17.7308707 L71.4409058,7.42744063 C71.4409058,6.75021988 71.6047427,6.235708 71.9324165,5.88390501 C72.2600904,5.53210202 72.6916045,5.35620053 73.226959,5.35620053 C73.7438529,5.35620053 74.1753671,5.52110818 74.5215014,5.85092348 C74.8676358,6.18073879 75.040703,6.63588391 75.040703,7.21635884 L75.040703,7.55936675 C75.6960507,6.8117854 76.3975496,6.26209323 77.1451998,5.91029024 C77.89285,5.55848725 78.7235724,5.38258575 79.6373671,5.38258575 C80.5880827,5.38258575 81.4049598,5.56288478 82.0879982,5.92348285 C82.7710367,6.28408091 83.3340819,6.82937555 83.7771338,7.55936675 C84.414021,6.82058047 85.0970595,6.27308707 85.8262492,5.91688654 C86.5554388,5.56068602 87.3630856,5.38258575 88.2491896,5.38258575 C89.2829775,5.38258575 90.1736965,5.5760774 90.9213467,5.96306069 C91.6689969,6.35004398 92.227427,6.90413369 92.5966369,7.62532982 C92.9196957,8.27616535 93.081225,9.30079156 93.081225,10.6992084 L93.081225,17.7308707 C93.081225,18.4872471 92.9012352,19.0545295 92.5412555,19.4327177 C92.1812757,19.8109059 91.7059179,20 91.115182,20 C90.5429065,20 90.0744714,19.8087071 89.7098765,19.4261214 C89.3452817,19.0435356 89.1629842,18.4784521 89.1629842,17.7308707 L89.1629842,11.6754617 C89.1629842,10.9014952 89.1283708,10.2814424 89.0591439,9.81530343 C88.9899171,9.34916447 88.8030045,8.95778364 88.4984063,8.64116095 C88.1938081,8.32453826 87.7322956,8.16622691 87.1138689,8.16622691 C86.6154355,8.16622691 86.1423852,8.30694811 85.6947181,8.5883905 C85.247051,8.86983289 84.8986091,9.24802111 84.6493924,9.72295515 C84.3724849,10.3298153 84.2340312,11.4028144 84.2340312,12.9419525 Z" id="Path"></path>
            <path d="M107.597424,13.5620053 L100.203995,13.5620053 C100.213225,14.3799472 100.386292,15.1011434 100.723196,15.7255937 C101.0601,16.350044 101.507768,16.8205805 102.066198,17.1372032 C102.624628,17.4538259 103.240747,17.6121372 103.914555,17.6121372 C104.366837,17.6121372 104.779891,17.5615655 105.153716,17.4604222 C105.527541,17.3592788 105.889828,17.2009675 106.240578,16.9854881 C106.591327,16.7700088 106.914386,16.5391381 107.209754,16.292876 C107.505122,16.0466139 107.888177,15.7124011 108.35892,15.2902375 C108.552755,15.1319261 108.829663,15.0527704 109.189642,15.0527704 C109.577313,15.0527704 109.891141,15.1539138 110.131128,15.3562005 C110.371114,15.5584872 110.491108,15.8443272 110.491108,16.2137203 C110.491108,16.5391381 110.357269,16.9195251 110.089592,17.3548813 C109.821915,17.7902375 109.418091,18.2080035 108.878122,18.6081794 C108.338152,19.0083553 107.659729,19.3403694 106.842852,19.6042216 C106.025975,19.8680739 105.086797,20 104.025318,20 C101.597762,20 99.7101765,19.3403694 98.3625601,18.0211082 C97.0149437,16.701847 96.3411355,14.9120493 96.3411355,12.651715 C96.3411355,11.587511 96.50728,10.6002639 96.839569,9.68997361 C97.171858,8.77968338 97.6564461,7.99912049 98.2933333,7.34828496 C98.9302205,6.69744943 99.7147916,6.19832894 100.647047,5.85092348 C101.579302,5.50351803 102.61309,5.3298153 103.748411,5.3298153 C105.22525,5.3298153 106.492102,5.62664908 107.548966,6.22031662 C108.605829,6.81398417 109.397323,7.58135444 109.923447,8.52242744 C110.449571,9.46350044 110.712634,10.4221636 110.712634,11.3984169 C110.712634,12.3043096 110.440341,12.8913808 109.895757,13.1596306 C109.351172,13.4278804 108.585061,13.5620053 107.597424,13.5620053 Z M100.203995,11.5171504 L107.057455,11.5171504 C106.965152,10.2858399 106.61671,9.36455585 106.012129,8.75329815 C105.407548,8.14204046 104.611439,7.83641161 103.623802,7.83641161 C102.682317,7.83641161 101.909283,8.14643799 101.304702,8.76649077 C100.700121,9.38654354 100.333218,10.3034301 100.203995,11.5171504 Z" id="Shape"></path>
            <path d="M114.790246,5.67282322 L115.205607,5.67282322 L115.205607,3.50923483 C115.205607,2.92875989 115.22176,2.47361478 115.254066,2.14379947 C115.286372,1.81398417 115.376367,1.53034301 115.524051,1.29287599 C115.671735,1.0466139 115.884031,0.846525945 116.160938,0.692612137 C116.437846,0.538698329 116.747059,0.461741425 117.088578,0.461741425 C117.568551,0.461741425 118.002373,0.633245383 118.390043,0.976253298 C118.64849,1.20492524 118.812327,1.48416887 118.881554,1.81398417 C118.950781,2.14379947 118.985394,2.6121372 118.985394,3.21899736 L118.985394,5.67282322 L120.369932,5.67282322 C120.905286,5.67282322 121.313725,5.7937555 121.595247,6.03562005 C121.87677,6.27748461 122.017531,6.58751099 122.017531,6.96569921 C122.017531,7.44942832 121.816773,7.7880387 121.415257,7.98153034 C121.013742,8.17502199 120.439159,8.27176781 119.691508,8.27176781 L118.985394,8.27176781 L118.985394,14.8944591 C118.985394,15.4573439 119.006162,15.8905013 119.047699,16.1939314 C119.089235,16.4973615 119.199998,16.7436236 119.379988,16.9327177 C119.559977,17.1218118 119.853038,17.2163588 120.259169,17.2163588 C120.480695,17.2163588 120.780678,17.1789798 121.159118,17.1042216 C121.537558,17.0294635 121.832926,16.9920844 122.045222,16.9920844 C122.34982,16.9920844 122.62442,17.1086192 122.869022,17.3416887 C123.113623,17.5747581 123.235924,17.8627968 123.235924,18.2058047 C123.235924,18.7862797 122.903635,19.230431 122.239057,19.5382586 C121.574479,19.8460862 120.619148,20 119.373065,20 C118.191593,20 117.296259,19.8109059 116.687062,19.4327177 C116.077866,19.0545295 115.678658,18.5312225 115.489437,17.8627968 C115.300217,17.1943712 115.205607,16.3016711 115.205607,15.1846966 L115.205607,8.27176781 L114.707174,8.27176781 C114.162589,8.27176781 113.747228,8.14863676 113.46109,7.90237467 C113.174952,7.65611258 113.031884,7.34388742 113.031884,6.96569921 C113.031884,6.58751099 113.181875,6.27748461 113.481858,6.03562005 C113.781841,5.7937555 114.217971,5.67282322 114.790246,5.67282322 Z" id="Path"></path>
            <path d="M130.22354,14.8021108 L130.22354,17.8100264 C130.22354,18.5400176 130.04355,19.087511 129.68357,19.4525066 C129.323591,19.8175022 128.866693,20 128.312878,20 C127.768294,20 127.320627,19.8153034 126.969877,19.4459103 C126.619128,19.0765172 126.443753,18.5312225 126.443753,17.8100264 L126.443753,7.78364116 C126.443753,6.16534741 127.057565,5.35620053 128.285188,5.35620053 C128.912845,5.35620053 129.365127,5.54529464 129.642034,5.92348285 C129.918942,6.30167106 130.071241,6.86015831 130.098932,7.59894459 C130.551214,6.86015831 131.015034,6.30167106 131.490392,5.92348285 C131.96575,5.54529464 132.600329,5.35620053 133.394131,5.35620053 C134.187932,5.35620053 134.958658,5.54529464 135.706308,5.92348285 C136.453958,6.30167106 136.827783,6.80299033 136.827783,7.42744063 C136.827783,7.86719437 136.668562,8.2299912 136.350118,8.51583113 C136.031674,8.80167106 135.687848,8.94459103 135.318638,8.94459103 C135.180184,8.94459103 134.845587,8.86323659 134.314848,8.7005277 C133.784109,8.53781882 133.315674,8.45646438 132.909543,8.45646438 C132.355728,8.45646438 131.903445,8.59498681 131.552696,8.87203166 C131.201946,9.14907652 130.929654,9.56024626 130.735819,10.1055409 C130.541984,10.6508355 130.408145,11.2994723 130.334303,12.0514512 C130.260461,12.8034301 130.22354,13.7203166 130.22354,14.8021108 Z" id="Path"></path>
            <path d="M153.423264,12.6781003 C153.423264,13.7510994 153.247889,14.7405453 152.89714,15.646438 C152.54639,16.5523307 152.038726,17.3306948 151.374148,17.9815303 C150.70957,18.6323659 149.915769,19.1314864 148.992744,19.4788918 C148.069719,19.8262973 147.031316,20 145.877535,20 C144.732984,20 143.703811,19.8240985 142.790017,19.4722955 C141.876222,19.1204925 141.084728,18.6169745 140.415535,17.9617414 C139.746342,17.3065084 139.238678,16.5325418 138.892544,15.6398417 C138.54641,14.7471416 138.373342,13.7598945 138.373342,12.6781003 C138.373342,11.587511 138.548717,10.58927 138.899467,9.68337731 C139.250216,8.77748461 139.753265,8.00351803 140.408612,7.36147757 C141.06396,6.71943712 141.857761,6.22471416 142.790017,5.87730871 C143.722272,5.52990325 144.751445,5.35620053 145.877535,5.35620053 C147.022086,5.35620053 148.060489,5.53210202 148.992744,5.88390501 C149.924999,6.235708 150.723416,6.73702726 151.387994,7.3878628 C152.052572,8.03869833 152.557928,8.81266491 152.904062,9.70976253 C153.250197,10.6068602 153.423264,11.5963061 153.423264,12.6781003 Z M149.629631,12.6781003 C149.629631,11.2093228 149.29042,10.0659631 148.611996,9.24802111 C147.933573,8.43007916 147.022086,8.02110818 145.877535,8.02110818 C145.139115,8.02110818 144.488382,8.20360598 143.925337,8.56860158 C143.362292,8.93359719 142.92847,9.47229551 142.623872,10.1846966 C142.319274,10.8970976 142.166975,11.7282322 142.166975,12.6781003 C142.166975,13.6191733 142.316966,14.4415128 142.616949,15.1451187 C142.916933,15.8487247 143.346139,16.387423 143.904569,16.7612137 C144.462999,17.1350044 145.120655,17.3218997 145.877535,17.3218997 C147.022086,17.3218997 147.933573,16.91073 148.611996,16.0883905 C149.29042,15.266051 149.629631,14.1292876 149.629631,12.6781003 Z" id="Shape"></path>
            <path d="M158.95629,20 C158.384015,20 157.890197,19.8240985 157.474835,19.4722955 C157.059474,19.1204925 156.851794,18.6279683 156.851794,17.994723 C156.851794,17.4582234 157.050244,16.996482 157.447145,16.6094987 C157.844045,16.2225154 158.333249,16.0290237 158.914754,16.0290237 C159.49626,16.0290237 159.992386,16.2203166 160.403132,16.6029024 C160.813878,16.9854881 161.019251,17.4494283 161.019251,17.994723 C161.019251,18.6191733 160.813878,19.1094987 160.403132,19.4656992 C159.992386,19.8218997 159.510105,20 158.95629,20 Z" id="Path"></path>
            <path d="M178.788288,15.5408971 C178.788288,15.9894459 178.647527,16.4687775 178.366005,16.9788918 C178.084482,17.4890062 177.655275,17.974934 177.078385,18.4366755 C176.501494,18.8984169 175.774612,19.2700088 174.897738,19.5514512 C174.020865,19.8328936 173.033228,19.9736148 171.934828,19.9736148 C169.599575,19.9736148 167.776601,19.324978 166.465906,18.0277045 C165.15521,16.730431 164.499863,14.9912049 164.499863,12.8100264 C164.499863,11.3324538 164.799846,10.0263852 165.399812,8.89182058 C165.999778,7.75725594 166.867422,6.87994723 168.002742,6.25989446 C169.138063,5.63984169 170.49491,5.3298153 172.073282,5.3298153 C173.051689,5.3298153 173.94933,5.46613896 174.766207,5.73878628 C175.583084,6.0114336 176.275353,6.36323659 176.843013,6.79419525 C177.410674,7.22515391 177.844495,7.68469657 178.144479,8.17282322 C178.444462,8.66094987 178.594453,9.11609499 178.594453,9.53825858 C178.594453,9.96921724 178.426001,10.3342128 178.089097,10.6332454 C177.752193,10.9322779 177.343754,11.0817942 176.863781,11.0817942 C176.549953,11.0817942 176.289198,11.0048373 176.081518,10.8509235 C175.873837,10.6970097 175.640773,10.4485488 175.382326,10.1055409 C174.920814,9.43711522 174.438533,8.93579595 173.935485,8.60158311 C173.432436,8.26737027 172.793242,8.10026385 172.017901,8.10026385 C170.90104,8.10026385 170.001091,8.51583113 169.318053,9.3469657 C168.635014,10.1781003 168.293495,11.3148637 168.293495,12.7572559 C168.293495,13.4344767 168.381182,14.0567282 168.556557,14.6240106 C168.731932,15.1912929 168.985764,15.675022 169.318053,16.0751979 C169.650342,16.4753738 170.051858,16.7788039 170.5226,16.9854881 C170.993343,17.1921724 171.510237,17.2955145 172.073282,17.2955145 C172.830163,17.2955145 173.478588,17.1284081 174.018557,16.7941953 C174.558527,16.4599824 175.036192,15.9498681 175.451553,15.2638522 C175.68231,14.8592788 175.931526,14.5426561 176.199204,14.3139842 C176.466881,14.0853122 176.794555,13.9709763 177.182225,13.9709763 C177.643738,13.9709763 178.026793,14.1380827 178.331391,14.4722955 C178.635989,14.8065084 178.788288,15.1627089 178.788288,15.5408971 Z" id="Path"></path>
            <path d="M196.918955,12.6781003 C196.918955,13.7510994 196.743581,14.7405453 196.392831,15.646438 C196.042082,16.5523307 195.534418,17.3306948 194.86984,17.9815303 C194.205262,18.6323659 193.411461,19.1314864 192.488436,19.4788918 C191.565411,19.8262973 190.527008,20 189.373227,20 C188.228676,20 187.199503,19.8240985 186.285708,19.4722955 C185.371914,19.1204925 184.58042,18.6169745 183.911227,17.9617414 C183.242034,17.3065084 182.73437,16.5325418 182.388236,15.6398417 C182.042101,14.7471416 181.869034,13.7598945 181.869034,12.6781003 C181.869034,11.587511 182.044409,10.58927 182.395158,9.68337731 C182.745908,8.77748461 183.248956,8.00351803 183.904304,7.36147757 C184.559652,6.71943712 185.353453,6.22471416 186.285708,5.87730871 C187.217963,5.52990325 188.247136,5.35620053 189.373227,5.35620053 C190.517778,5.35620053 191.556181,5.53210202 192.488436,5.88390501 C193.420691,6.235708 194.219107,6.73702726 194.883685,7.3878628 C195.548263,8.03869833 196.05362,8.81266491 196.399754,9.70976253 C196.745888,10.6068602 196.918955,11.5963061 196.918955,12.6781003 Z M193.125323,12.6781003 C193.125323,11.2093228 192.786111,10.0659631 192.107688,9.24802111 C191.429265,8.43007916 190.517778,8.02110818 189.373227,8.02110818 C188.634807,8.02110818 187.984074,8.20360598 187.421029,8.56860158 C186.857984,8.93359719 186.424162,9.47229551 186.119564,10.1846966 C185.814966,10.8970976 185.662666,11.7282322 185.662666,12.6781003 C185.662666,13.6191733 185.812658,14.4415128 186.112641,15.1451187 C186.412624,15.8487247 186.841831,16.387423 187.400261,16.7612137 C187.958691,17.1350044 188.616346,17.3218997 189.373227,17.3218997 C190.517778,17.3218997 191.429265,16.91073 192.107688,16.0883905 C192.786111,15.266051 193.125323,14.1292876 193.125323,12.6781003 Z" id="Shape"></path>
            <path d="M213.152806,12.9419525 L213.152806,17.7308707 C213.152806,18.4872471 212.972816,19.0545295 212.612837,19.4327177 C212.252857,19.8109059 211.777499,20 211.186763,20 C210.614488,20 210.150668,19.8109059 209.795303,19.4327177 C209.439938,19.0545295 209.262256,18.4872471 209.262256,17.7308707 L209.262256,11.9920844 C209.262256,11.0861917 209.22995,10.3825858 209.165338,9.88126649 C209.100727,9.37994723 208.925352,8.96877748 208.639214,8.64775726 C208.353077,8.32673703 207.900794,8.16622691 207.282368,8.16622691 C206.045514,8.16622691 205.230945,8.57080035 204.838659,9.37994723 C204.446374,10.1890941 204.250231,11.350044 204.250231,12.8627968 L204.250231,17.7308707 C204.250231,18.4784521 204.072548,19.0435356 203.717184,19.4261214 C203.361819,19.8087071 202.893384,20 202.311878,20 C201.739603,20 201.271168,19.8087071 200.906573,19.4261214 C200.541978,19.0435356 200.359681,18.4784521 200.359681,17.7308707 L200.359681,7.42744063 C200.359681,6.75021988 200.523518,6.235708 200.851192,5.88390501 C201.178865,5.53210202 201.61038,5.35620053 202.145734,5.35620053 C202.662628,5.35620053 203.094142,5.52110818 203.440276,5.85092348 C203.786411,6.18073879 203.959478,6.63588391 203.959478,7.21635884 L203.959478,7.55936675 C204.614826,6.8117854 205.316325,6.26209323 206.063975,5.91029024 C206.811625,5.55848725 207.642347,5.38258575 208.556142,5.38258575 C209.506858,5.38258575 210.323735,5.56288478 211.006773,5.92348285 C211.689812,6.28408091 212.252857,6.82937555 212.695909,7.55936675 C213.332796,6.82058047 214.015834,6.27308707 214.745024,5.91688654 C215.474214,5.56068602 216.281861,5.38258575 217.167965,5.38258575 C218.201752,5.38258575 219.092472,5.5760774 219.840122,5.96306069 C220.587772,6.35004398 221.146202,6.90413369 221.515412,7.62532982 C221.838471,8.27616535 222,9.30079156 222,10.6992084 L222,17.7308707 C222,18.4872471 221.82001,19.0545295 221.46003,19.4327177 C221.100051,19.8109059 220.624693,20 220.033957,20 C219.461681,20 218.993246,19.8087071 218.628651,19.4261214 C218.264057,19.0435356 218.081759,18.4784521 218.081759,17.7308707 L218.081759,11.6754617 C218.081759,10.9014952 218.047146,10.2814424 217.977919,9.81530343 C217.908692,9.34916447 217.721779,8.95778364 217.417181,8.64116095 C217.112583,8.32453826 216.651071,8.16622691 216.032644,8.16622691 C215.53421,8.16622691 215.06116,8.30694811 214.613493,8.5883905 C214.165826,8.86983289 213.817384,9.24802111 213.568167,9.72295515 C213.29126,10.3298153 213.152806,11.4028144 213.152806,12.9419525 Z" id="Path"></path>
        </g>
    </g>
</svg>